# xmcd
#
# Track frame offsets:
#	182
#	12152
#	25390
#	37152
#	46445
#	57715
#	68200
#	77930
#	88050
#	97220
#	109575
#	121745
#	135935
#	146775
#	158315
#	170417
#	179335
#	193885
#	206655
#	217262
#
# Disc length: 3019
#
# Revision: 2
# Processed by: cddbd v1.5.1PL0 Copyright (c) Steve Scherf et al.
# Submitted via: CDex 1.51
# Normalized: r1:DSETVAR1
#
DISCID=2a0bc914
DTITLE=Various Artist - 20 Milestones of Rock'n Roll Vol. 1
DYEAR=1995
DGENRE=Rock and Roll
TTITLE0=Danny and The Juniors - At The Hop
TTITLE1=Ad Libs - The Boy From New York City
TTITLE2=Chubby Checker - The Twist
TTITLE3=Joey Dee and The Starliters - Peppermint Twist
TTITLE4=Tony Sheridan and The Beatles - Let's Dance
TTITLE5=Crystals - Da Doo Ron Ron
TTITLE6=Lttle Richard - Good Golly Miss Molly
TTITLE7=Carl Perkins - Blue Suede Shoes
TTITLE8=Gene Vincent - Pistol Packin Mama
TTITLE9=Bill Haly and Comets - See You Later Alligator (Live)
TTITLE10=Fats Domino - Let The Four Winds Blow
TTITLE11=Little Richard - The Girl Can't Help  It
TTITLE12=Brook Benton - A Rockin Good Way
TTITLE13=Bobby Day - Rockin Robin
TTITLE14=Coasters - Poison Ivy
TTITLE15=Searchers - Love Potion Number 9
TTITLE16=Fats Domino - I'm In Love Again
TTITLE17=Dave Baby Cortez - Rinky Dink
TTITLE18=Johnny and The Hurricans - Reveille Rock
TTITLE19=Duane Eddy - Forty Miles Of Bad Road
EXTD=Recordnumber 2128.2027-2 Block Buster YEAR: 1995
EXTT0=1957
EXTT1=1965
EXTT2=1960
EXTT3=1961
EXTT4=1961
EXTT5=1963
EXTT6=1958
EXTT7=1956
EXTT8=1958
EXTT9=1956
EXTT10=1961
EXTT11=1957
EXTT12=1960
EXTT13=1958
EXTT14=1959
EXTT15=1964
EXTT16=1959
EXTT17=1962
EXTT18=1959
EXTT19=1959
PLAYORDER=
